<svg width="40" height="34" viewBox="0 0 40 34" fill="none" xmlns="http://www.w3.org/2000/svg">
<path d="M19.7864 0C20.2985 0.268053 20.8743 1.03783 21.2609 1.49299C24.5775 5.39747 26.3171 10.3704 26.0095 15.6052C25.7116 20.6708 23.3377 25.1689 19.7747 28.4933C19.1 28.0072 18.4826 27.3154 17.9429 26.6723C14.9161 23.0646 13.257 17.9959 13.5461 13.1872C13.8441 8.22932 16.2489 3.26841 19.7864 0Z" fill="#0D0B0A"/>
<path d="M33.9007 7.08984C33.9106 7.10739 33.9217 7.12422 33.9302 7.14254C34.119 7.54761 34.1735 8.1903 34.2215 8.6399C34.4708 10.978 34.2645 13.3222 33.4842 15.5359C31.5348 21.0666 27.0288 25.1377 22.0469 27.5512C21.9882 27.5505 22.0276 27.5555 21.938 27.5005C22.2424 26.9757 22.667 26.5065 23.0182 26.0134C23.5555 25.2434 24.0424 24.4361 24.4753 23.597C26.0014 20.6375 26.7312 17.3829 26.729 14.0263C26.7284 13.073 26.7076 12.1208 26.4459 11.2007C26.9131 10.6543 27.4855 10.1937 28.0412 9.7505C29.8321 8.32218 31.6366 7.32817 33.9007 7.08984Z" fill="#0D0B0A"/>
<path d="M5.60862 7.11523C5.87748 7.12615 6.14874 7.16293 6.41466 7.20555C8.46117 7.5337 10.2518 8.6822 11.8505 10.0114C12.2967 10.3824 12.7849 10.7692 13.1209 11.2567C12.2708 15.859 13.3982 20.6848 15.6564 24.6651C16.017 25.2977 16.4066 25.9113 16.8238 26.5045C17.023 26.787 17.2601 27.0434 17.4387 27.34L17.3754 27.4266C13.6522 25.7486 10.1643 22.7792 7.92051 19.2301C5.56657 15.5063 4.78821 11.4952 5.60862 7.11523Z" fill="#0D0B0A"/>
<path d="M37.5427 17.3839C38.1364 17.3092 39.4668 17.2303 39.9645 17.5642C39.9896 17.6431 39.9971 17.6509 39.9997 17.7467C40.0096 18.1137 39.782 18.6632 39.6641 19.0056C38.8744 21.3684 37.5225 23.4783 35.7379 25.1331C32.2444 28.3885 27.716 29.5565 23.1427 29.2465C22.2789 29.1514 21.3884 29.088 20.5581 28.8091C24.3898 27.5671 28.0346 25.0295 30.6756 21.8608C31.3246 21.0817 31.8006 20.1771 32.4322 19.3937C33.6311 17.9066 35.8047 17.5135 37.5427 17.3839Z" fill="#0D0B0A"/>
<path d="M0.938334 17.5081C2.72394 17.2862 5.14687 17.5962 6.61763 18.7677C7.49206 19.4644 8.01901 20.7578 8.74169 21.6384C11.0016 24.3965 13.8321 26.5712 17.0152 27.9949C17.6929 28.3007 18.3907 28.6198 19.1074 28.8058L17.6748 29.058C13.5029 29.6906 9.1798 28.9051 5.61025 26.4592C3.17944 24.7931 1.46789 22.5085 0.461651 19.6589C0.313919 19.2411 0.0927895 18.7874 0.0172527 18.3521C-0.0268661 18.0978 0.0119718 17.9301 0.152952 17.7145C0.377356 17.5405 0.669076 17.5426 0.938334 17.5081Z" fill="#0D0B0A"/>
<path d="M20.0012 29.1035C20.727 29.3754 21.4573 29.5931 22.2187 29.7234C23.5303 29.9475 25.0542 29.882 26.2326 30.6019C27.1028 31.1338 27.994 32.3793 28.2399 33.4121C28.285 33.6016 28.272 33.6171 28.1798 33.7742C27.2691 34.1201 26.3845 34.0377 25.4782 33.7249C23.2951 32.9725 21.0698 31.2958 20.0012 29.1035Z" fill="#0D0B0A"/>
<path d="M19.591 29.1079C19.6371 29.1037 19.6813 29.129 19.7258 29.1424C19.7235 29.1642 19.7239 29.1868 19.719 29.2086C19.6069 29.6982 17.8096 31.6947 17.3947 32.0406C15.9606 33.234 13.8313 34.1815 11.9813 33.9483C11.9318 33.9371 11.8631 33.923 11.818 33.9011C11.7184 33.8525 11.6553 33.8138 11.6291 33.7004C11.5589 33.3953 11.7234 33.0417 11.855 32.7768C12.2788 31.923 12.9425 30.9212 13.7739 30.4598C14.7987 29.892 16.312 29.8941 17.4509 29.6806C18.1806 29.544 18.8837 29.3354 19.591 29.1079Z" fill="#0D0B0A"/>
</svg>
