<svg aria-hidden="true" style="position:absolute;width:0;height:0" xmlns="http://www.w3.org/2000/svg" overflow="hidden">
    <defs>
        <symbol id="icon-facebook" viewBox="0 0 30 32">
            <path
        d="M14.654.389c-3.003.133-5.777 1.074-8.178 2.778C2.659 5.886.161 10.243.017 15.191l-.001.022a15.165 15.165 0 0 0 1.288 6.701l-.038-.097c1.777 4.123 5.364 7.314 9.644 8.582.556.165 1.713.431 1.877.433.05 0 .062-1.105.062-5.358v-5.359h-3.86v-4.419h3.86V13.88c0-.998.024-2.066.053-2.374.242-2.595 1.64-4.346 3.933-4.928.763-.194 1.6-.25 2.69-.183.862.055 1.995.171 2.328.239l.139.029v3.736l-1.231.029c-1.288.03-1.598.075-2.028.294-.512.262-.92.829-1.051 1.458-.035.165-.056.904-.056 1.893v1.623h4.219l-.027.165c-.055.32-.637 4.165-.637 4.209 0 .026-.771.046-1.778.046h-1.777v5.359c0 4.253.012 5.358.062 5.358.035 0 .332-.056.661-.125 5.25-1.093 9.606-4.974 11.317-10.085 1.374-4.107.968-8.648-1.109-12.367C26.098 3.851 21.666.923 16.761.463A18.657 18.657 0 0 0 14.633.39h.02z" />
        </symbol>
        <symbol id="icon-instagram" viewBox="0 0 30 32">
            <path
        d="M7.528.46a8.047 8.047 0 0 0-2.922.883l.044-.021a7.923 7.923 0 0 0-2.147 1.532C1.235 4.114.463 5.581.115 7.391c-.083.433-.089 1.007-.089 8.17v7.705l.116.578c.755 3.722 3.687 6.408 7.448 6.821.677.074 14.461.074 15.138 0 3.761-.413 6.693-3.099 7.448-6.821l.116-.578v-7.705c0-7.163-.007-7.737-.089-8.17-.349-1.805-1.123-3.281-2.388-4.537a7.822 7.822 0 0 0-2.125-1.521l-.046-.02A7.55 7.55 0 0 0 22.758.46l-.03-.002C22.132.392 8.104.396 7.53.46zm15.487 3.011c1.908.443 3.389 1.74 4.034 3.537.327.908.312.505.312 8.579 0 7.304 0 7.328-.108 7.813a5.534 5.534 0 0 1-1.459 2.699l.001-.001a5.406 5.406 0 0 1-3.427 1.639l-.02.001c-.652.064-13.725.064-14.376 0a5.417 5.417 0 0 1-3.446-1.639l-.002-.002a5.51 5.51 0 0 1-1.452-2.661l-.007-.037c-.108-.485-.108-.509-.108-7.813 0-6.863.005-7.355.091-7.774.497-2.445 2.461-4.214 4.911-4.426.249-.022 3.638-.035 7.528-.03 6.974.008 7.08.01 7.528.115zm-.14 2.446a1.68 1.68 0 0 0-1.389 1.531v.005c-.099 1.25 1.231 2.163 2.373 1.627a1.663 1.663 0 0 0 .542-2.632l.001.001a1.678 1.678 0 0 0-1.538-.531l.01-.001zm-8.622 2.118c-2.887.364-5.363 2.373-6.269 5.088-.31.928-.376 1.352-.374 2.439 0 .822.019 1.068.111 1.482.327 1.484.952 2.671 1.954 3.715.941.98 1.853 1.563 3.101 1.979.866.29 1.4.372 2.381.372s1.516-.083 2.381-.372c1.248-.416 2.159-.999 3.101-1.979a7.457 7.457 0 0 0 1.97-3.812l.007-.046c.138-.741.126-2.134-.024-2.84-.648-3.037-2.956-5.331-5.965-5.932-.569-.113-1.824-.163-2.375-.094zm1.915 3.012a4.615 4.615 0 0 1 3.579 4.017l.002.02c.133 1.445-.327 2.735-1.331 3.739a4.462 4.462 0 0 1-3.206 1.353h-.058.003-.06a4.443 4.443 0 0 1-3.222-1.378l-.002-.002c-.985-.999-1.438-2.282-1.307-3.712.251-2.732 2.899-4.638 5.602-4.037z" />
        </symbol>
        <symbol id="icon-linkedin" viewBox="0 0 30 32">
            <path
        d="M2.024.46a3.2 3.2 0 0 0-.617.229l.019-.008A2.558 2.558 0 0 0 .058 2.399l-.003.017c-.04.192-.056 3.944-.056 13.164 0 11.417.008 12.931.077 13.197a2.551 2.551 0 0 0 1.92 1.868l.017.003c.502.106 25.785.106 26.287 0a2.552 2.552 0 0 0 1.933-1.854l.004-.018c.069-.266.077-1.78.077-13.197 0-9.219-.015-12.972-.056-13.164A2.62 2.62 0 0 0 28.264.458l-.017-.003C27.907.391 2.349.396 2.022.46zM7.53 4.751c1.197.345 1.918 1.526 1.728 2.829-.16 1.101-.928 1.88-2.078 2.107a2.435 2.435 0 0 1-1.609-.217l.014.006c-.893-.431-1.411-1.29-1.405-2.328.013-1.775 1.593-2.905 3.35-2.398zm14.272 6.789c.546.131 1.497.62 1.969 1.014 1.081.903 1.612 1.912 1.93 3.665.077.428.089 1.004.104 5.241l.019 4.763h-4.495l-.02-4.131c-.019-4.049-.022-4.14-.131-4.628-.251-1.115-.706-1.686-1.573-1.982-.418-.143-1.28-.133-1.718.019a3.062 3.062 0 0 0-1.651 1.477l-.008.017c-.345.707-.33.482-.349 5.075l-.019 4.157-4.467-.027-.013-7.213-.012-7.212h4.244v1.024l.002 1.022.135-.177c.288-.372.957-1.021 1.3-1.256a5.463 5.463 0 0 1 1.835-.839l.038-.008c.426-.113.522-.12 1.491-.101.733.013 1.139.044 1.389.103zm-12.82 7.47-.013 7.188-4.421.027V11.823h4.446l-.012 7.187z" />
        </symbol>
        <symbol id="icon-youtube" viewBox="0 0 45 32">
            <path
        d="M18.854.045C11.748.207 7.825.502 6.457.971A5.63 5.63 0 0 0 3.205 4.07l-.014.037c-1.18 2.987-1.457 14.01-.497 19.787.292 1.771.747 2.778 1.668 3.697 1.199 1.195 2.283 1.562 5.532 1.86 8.35.772 26.596.546 30.174-.371a5.71 5.71 0 0 0 2.793-1.772l.006-.007c.747-.915 1.105-1.903 1.406-3.898.606-3.987.691-11.136.188-15.599-.356-3.147-.745-4.256-1.899-5.423-.911-.919-1.737-1.344-3.093-1.596-1.393-.258-4.425-.493-8.258-.636C29.135.07 20.783 0 18.855.044zM24.73 11.75c3.01 1.739 5.47 3.191 5.466 3.228-.006.049-8.164 4.785-10.726 6.229l-.279.156v-6.387c0-3.514.015-6.389.034-6.389.017 0 2.496 1.423 5.506 3.164z" />
        </symbol>
        <symbol id="icon-logo" viewBox="0 0 108 32">
            <path
        d="M17.807 2.195c-4.38 4.678-5.821 11.063-3.822 16.942.851 2.504 2.336 4.878 4.111 6.578l.749.717 1.375-1.449c4.659-4.916 5.789-11.762 2.99-18.094-.905-2.044-3.619-5.635-4.26-5.635-.143 0-.658.424-1.143.941zm13.284 5.377c-.493.084-1.46.428-2.15.762-1.292.626-3.77 2.409-3.756 2.701.005.091.077.723.159 1.404.178 1.462-.1 4.115-.634 6.056-.481 1.751-1.533 3.892-2.738 5.572-.545.759-.946 1.38-.891 1.38.351 0 3.092-1.619 4.378-2.584 4.773-3.588 7.197-8.233 6.935-13.288-.11-2.112-.166-2.198-1.303-2.002zm-25.482.244c-.074.186-.133 1.306-.132 2.488.001 1.681.088 2.455.399 3.547 1.039 3.64 3.598 7.021 7.264 9.595 1.088.764 3.525 2.089 3.525 1.917 0-.049-.324-.513-.719-1.033-.835-1.097-2.125-3.661-2.683-5.331-.631-1.887-.984-4.817-.774-6.431.099-.753.142-1.469.097-1.592-.137-.381-2.396-1.993-3.716-2.652-.695-.347-1.673-.676-2.191-.736-.812-.096-.955-.065-1.07.228zm33.226 5.556c-.148.147.75 1.905 1.997 3.909l1.011 1.624.179 4.122.786.056c.433.031.876-.033.986-.143.119-.119.207-.974.22-2.117l.02-1.917 1.458-2.419c.801-1.33 1.458-2.601 1.458-2.822 0-.364-.087-.403-.89-.403-1.087 0-1.32.219-2.35 2.199l-.742 1.426-.8-1.499c-1.089-2.04-1.181-2.126-2.294-2.126-.511 0-.978.05-1.039.111zm30.096.273c-.145.541-.154 8.813-.009 9.189.092.238.48.283 2.464.282 2.104-.003 2.452-.047 3.274-.43.787-.366.964-.547 1.234-1.252.462-1.211.283-2.189-.538-2.941l-.648-.594.547-.622c.662-.755.739-1.816.196-2.707-.603-.988-1.236-1.192-3.969-1.274-2.437-.074-2.437-.074-2.551.349zm8.167 4.49.047 4.892 1.888.109-.049-4.893-.047-4.892-1.888-.109.049 4.893zm-3.984-2.851c.347.175.448.366.448.844 0 .759-.503 1.069-1.747 1.073l-.851.003v-2.15l.851.003c.468.001 1.053.105 1.299.229zm-17.024.592c-.982.426-1.599 1.135-1.906 2.193-.918 3.155 1.632 5.994 3.963 4.412.37-.251.694-.433.719-.403s-.068.439-.207.911c-.204.686-.376.916-.868 1.151-.572.273-.685.27-1.682-.031-1.217-.369-1.632-.289-1.632.315 0 .532.654 1.157 1.449 1.385 1.966.564 4.019-.269 4.65-1.885.268-.684.448-6.601.228-7.437-.146-.554-.241-.634-.815-.682-.512-.044-.692.026-.854.325l-.204.38-.46-.46c-.536-.536-1.399-.599-2.382-.174zm7.616-.158c-1.311.316-2.079 1.147-1.629 1.76.174.238.371.284.838.195a28.74 28.74 0 0 1 1.448-.225c.795-.102.849-.082 1.119.44.156.302.224.586.15.631-.073.046-.643.183-1.265.305-1.459.287-2.208.795-2.51 1.701-.483 1.448.443 2.77 1.939 2.77.68 0 1.78-.571 1.81-.937.01-.124.074-.024.142.221.109.392.224.448.923.448h.799l.05-2.561c.044-2.234.004-2.664-.306-3.365-.279-.63-.522-.881-1.125-1.153a3.771 3.771 0 0 0-2.407-.224l.026-.005zm32.824.096c-.275.201-.302.591-.259 3.718l.049 3.494h1.792l.096-2.33c.115-2.813.333-3.315 1.437-3.315.703 0 .91.716.945 3.259l.031 2.386 1.882.109.001-2.026c.001-2.906.31-3.727 1.399-3.727.694 0 .836.474.929 3.118l.09 2.527 1.882.109v-2.793c0-2.004-.072-2.964-.253-3.401-.649-1.553-2.963-1.801-3.843-.412l-.344.543-.325-.497c-.374-.57-1.24-.986-2.057-.986-.399 0-.736.175-1.17.609-.596.596-.609.6-.609.175 0-.657-1.056-1.01-1.672-.561zm-48.415.236c-1.473.764-2.401 2.482-2.14 3.965.335 1.914 1.859 3.203 3.753 3.177 1.258-.018 1.958-.334 2.764-1.251.741-.845.91-1.313.91-2.519 0-1.487-.7-2.641-2.008-3.313-.826-.422-2.518-.453-3.278-.06zm33.697.127c-.39.221-.955.751-1.254 1.178-.488.694-.545.915-.545 2.089s.058 1.395.545 2.09c1.676 2.387 5.091 2.18 6.413-.389.43-.835.493-1.132.413-1.949-.125-1.298-.858-2.463-1.889-3.008-1.076-.568-2.688-.573-3.683-.01zm8.236-.157c-1.312.579-2.132 1.889-2.143 3.423-.015 2.573 2.304 4.326 4.773 3.608 1.628-.474 2.656-1.87 2.656-3.608 0-1.509-.692-2.657-2.008-3.333-.785-.402-2.465-.448-3.278-.09zm-56.134.734c-1.788.325-2.733.927-3.881 2.477-2.292 3.094-6.45 6.189-9.569 7.123-1.34.401-.43.612 2.653.613 3.425.003 4.932-.305 7.437-1.519 3.468-1.682 5.788-4.27 6.976-7.781.239-.71.252-.909.065-1.028-.338-.214-2.184-.156-3.681.115zm-33.257.031c-.521.521 1.101 4.033 2.65 5.741 1.778 1.96 4.417 3.434 7.356 4.109 1.556.357 5.039.453 6.63.183l.896-.152-1.08-.407c-3.59-1.352-7.374-4.256-9.469-7.269-.8-1.152-1.482-1.646-2.81-2.04-.946-.282-3.937-.398-4.173-.164zm50.041 1.052c.562.544.728 2.092.312 2.895-.384.742-1.18 1.062-1.846.744-.672-.323-.954-.941-.957-2.095-.003-.858.064-1.025.621-1.582.7-.7 1.115-.691 1.87.038zm7.674-.24c.343.284.627 1.562.5 2.243-.157.838-.673 1.306-1.441 1.306-.518 0-.692-.104-.986-.582-.195-.32-.355-.847-.355-1.17-.001-.756.411-1.74.833-1.992.352-.209 1.079-.111 1.448.196zm26.337.249c.75.824.707 2.637-.081 3.346-.625.563-1.213.563-1.842.003-.739-.659-.916-1.933-.41-2.913.581-1.121 1.544-1.302 2.332-.435zm7.937.007c.388.375.448.59.448 1.609 0 1.107-.035 1.206-.602 1.713-.644.575-1.231.586-1.844.035-.419-.376-.716-1.687-.525-2.321.287-.957.412-1.157.887-1.413.57-.308 1.039-.2 1.636.378zm-19.174 1.373c.59.297.684 1.057.189 1.551-.297.297-.596.369-1.533.369h-1.165v-2.15l1.03.003c.567.001 1.233.104 1.478.228zm-7.706 1.187c0 .458-1.028 1.302-1.503 1.234-.655-.093-.498-.89.248-1.263.826-.412 1.254-.402 1.254.029zm-48.294 6.832c-.69.178-1.472.329-1.738.338-1.039.031-2.33.426-2.867.878-.685.576-1.577 1.946-1.577 2.42 0 .319.105.34 1.3.264 1.921-.124 3.319-.847 4.946-2.56.704-.741 1.28-1.428 1.28-1.526 0-.099-.02-.17-.045-.159s-.609.166-1.299.344zm2.243.598c1.252 1.743 3.724 3.177 5.701 3.308.623.041 1.208 0 1.299-.091.101-.101-.018-.535-.307-1.114-.65-1.306-1.527-1.906-3.163-2.164a68.432 68.432 0 0 1-4.178-.764l.48.087c-.424-.096-.42-.079.168.739z" />
        </symbol>
        <symbol id="icon-btn_close" viewBox="0 0 32 32">
            <path
        d="M27.179.918 15.864 12.23 4.552.918.781 4.689l11.312 11.312L.781 27.313l3.771 3.771 11.312-11.312 11.315 11.312 3.771-3.771-11.312-11.312L30.95 4.689 27.179.918z" />
        </symbol>
        <symbol id="icon-btn_burger" viewBox="0 0 43 32">
            <path
        d="M0 2.667v2.667h42.667V.001H0v2.667zm0 13.368v2.667h42.667v-5.333H0v2.667zm0 13.298V32h42.667v-5.333H0v2.667z" />
        </symbol>
        <symbol id="icon-check" viewBox="0 0 40 32">
            <path d="M33.782 1.020c0.691-0.662 1.611-1.027 2.565-1.020s1.869 0.387 2.55 1.059c0.681 0.672 1.076 1.584 1.101 2.543s-0.321 1.891-0.966 2.598l-19.578 24.617c-0.337 0.365-0.743 0.657-1.195 0.86s-0.939 0.312-1.434 0.322c-0.495 0.009-0.986-0.082-1.445-0.268s-0.876-0.463-1.226-0.815l-12.984-13.054c-0.362-0.339-0.652-0.747-0.853-1.201s-0.309-0.944-0.318-1.441 0.082-0.99 0.267-1.451c0.185-0.461 0.461-0.879 0.81-1.231s0.766-0.628 1.224-0.814 0.949-0.277 1.443-0.269c0.494 0.009 0.981 0.118 1.433 0.32s0.858 0.494 1.195 0.857l10.275 10.325 17.042-21.83c0.031-0.038 0.063-0.074 0.098-0.109h-0.005z"></path>
        </symbol>
    </defs>
</svg>